<svg xmlns="http://www.w3.org/2000/svg" width="800" height="500" viewBox="0 0 800 500">
  <defs>
    <linearGradient id="bg2" x1="0%" y1="0%" x2="100%" y2="100%">
      <stop offset="0%" style="stop-color:#0f172a"/>
      <stop offset="100%" style="stop-color:#1e293b"/>
    </linearGradient>
    <linearGradient id="accent2" x1="0%" y1="0%" x2="100%" y2="0%">
      <stop offset="0%" style="stop-color:#3B82F6"/>
      <stop offset="100%" style="stop-color:#06B6D4"/>
    </linearGradient>
  </defs>
  <rect width="800" height="500" fill="url(#bg2)"/>
  <rect x="150" y="100" width="500" height="300" rx="8" fill="#1e293b" stroke="#334155" stroke-width="2"/>
  <rect x="150" y="100" width="500" height="40" rx="8" fill="#334155"/>
  <circle cx="175" cy="120" r="6" fill="#ef4444"/>
  <circle cx="195" cy="120" r="6" fill="#f59e0b"/>
  <circle cx="215" cy="120" r="6" fill="#10b981"/>
  <rect x="170" y="160" width="120" height="12" rx="2" fill="url(#accent2)" opacity="0.8"/>
  <rect x="170" y="185" width="200" height="8" rx="2" fill="#475569"/>
  <rect x="170" y="200" width="180" height="8" rx="2" fill="#475569"/>
  <rect x="170" y="215" width="160" height="8" rx="2" fill="#475569"/>
  <rect x="170" y="250" width="460" height="130" rx="4" fill="#0f172a" stroke="#334155"/>
  <rect x="185" y="265" width="140" height="100" rx="2" fill="#1e293b"/>
  <rect x="340" y="265" width="140" height="100" rx="2" fill="#1e293b"/>
  <rect x="495" y="265" width="120" height="100" rx="2" fill="#1e293b"/>
  <text x="400" y="440" font-family="system-ui, sans-serif" font-size="24" fill="#C1CCDD" text-anchor="middle">Personal Website</text>
</svg>